<mxfile host="app.diagrams.net" modified="2024-06-10T15:39:02.880Z" agent="Mozilla/5.0 (Windows NT 10.0; Win64; x64) AppleWebKit/537.36 (KHTML, like Gecko) Chrome/125.0.0.0 Safari/537.36" version="24.0.7" etag="ucSWyCNL6IddSnik-rbL" type="github">
  <diagram name="Page-1" id="EAsET3FkdaVzibSybHKj">
    <mxGraphModel>
      <root>
        <mxCell id="0" />
        <mxCell id="1" parent="0" />
      </root>
    </mxGraphModel>
  </diagram>
</mxfile>
